<svg width="24" height="24" viewBox="0 0 24 24" fill="none" xmlns="http://www.w3.org/2000/svg">
<rect width="24" height="24" rx="12" fill="#FFDAD6"/>
<path d="M12 16.5C11.725 16.5 11.4896 16.4021 11.2937 16.2063C11.0979 16.0104 11 15.775 11 15.5C11 15.225 11.0979 14.9896 11.2937 14.7937C11.4896 14.5979 11.725 14.5 12 14.5C12.275 14.5 12.5104 14.5979 12.7062 14.7937C12.9021 14.9896 13 15.225 13 15.5C13 15.775 12.9021 16.0104 12.7062 16.2063C12.5104 16.4021 12.275 16.5 12 16.5ZM11 13.5V7.5H13V13.5H11Z" fill="#BA1A1A"/>
</svg>
