<svg width="24" height="24" viewBox="0 0 24 24" fill="none" xmlns="http://www.w3.org/2000/svg">
<rect width="24" height="24" rx="12" fill="#0056D2"/>
<path d="M9 16C8.58333 16 8.22917 15.8542 7.9375 15.5625C7.64583 15.2708 7.5 14.9167 7.5 14.5H6.5V9C6.5 8.725 6.59792 8.48958 6.79375 8.29375C6.98958 8.09792 7.225 8 7.5 8H14.5V10H16L17.5 12V14.5H16.5C16.5 14.9167 16.3542 15.2708 16.0625 15.5625C15.7708 15.8542 15.4167 16 15 16C14.5833 16 14.2292 15.8542 13.9375 15.5625C13.6458 15.2708 13.5 14.9167 13.5 14.5H10.5C10.5 14.9167 10.3542 15.2708 10.0625 15.5625C9.77083 15.8542 9.41667 16 9 16ZM9 15C9.14167 15 9.26042 14.9521 9.35625 14.8562C9.45208 14.7604 9.5 14.6417 9.5 14.5C9.5 14.3583 9.45208 14.2396 9.35625 14.1438C9.26042 14.0479 9.14167 14 9 14C8.85833 14 8.73958 14.0479 8.64375 14.1438C8.54792 14.2396 8.5 14.3583 8.5 14.5C8.5 14.6417 8.54792 14.7604 8.64375 14.8562C8.73958 14.9521 8.85833 15 9 15ZM7.5 13.5H7.9C8.04167 13.35 8.20417 13.2292 8.3875 13.1375C8.57083 13.0458 8.775 13 9 13C9.225 13 9.42917 13.0458 9.6125 13.1375C9.79583 13.2292 9.95833 13.35 10.1 13.5H13.5V9H7.5V13.5ZM15 15C15.1417 15 15.2604 14.9521 15.3562 14.8562C15.4521 14.7604 15.5 14.6417 15.5 14.5C15.5 14.3583 15.4521 14.2396 15.3562 14.1438C15.2604 14.0479 15.1417 14 15 14C14.8583 14 14.7396 14.0479 14.6438 14.1438C14.5479 14.2396 14.5 14.3583 14.5 14.5C14.5 14.6417 14.5479 14.7604 14.6438 14.8562C14.7396 14.9521 14.8583 15 15 15ZM14.5 12.5H16.625L15.5 11H14.5V12.5Z" fill="white"/>
</svg>
