<svg width="24" height="24" viewBox="0 0 24 24" fill="none" xmlns="http://www.w3.org/2000/svg">
<rect width="24" height="24" rx="12" fill="#0040A1"/>
<path d="M11.825 10.75V9.25H10.325V8.25H11.825V6.75H12.825V8.25H14.325V9.25H12.825V10.75H11.825ZM9.825 17.25C9.55 17.25 9.31458 17.1521 9.11875 16.9563C8.92291 16.7604 8.825 16.525 8.825 16.25C8.825 15.975 8.92291 15.7396 9.11875 15.5437C9.31458 15.3479 9.55 15.25 9.825 15.25C10.1 15.25 10.3354 15.3479 10.5312 15.5437C10.7271 15.7396 10.825 15.975 10.825 16.25C10.825 16.525 10.7271 16.7604 10.5312 16.9563C10.3354 17.1521 10.1 17.25 9.825 17.25ZM14.825 17.25C14.55 17.25 14.3146 17.1521 14.1187 16.9563C13.9229 16.7604 13.825 16.525 13.825 16.25C13.825 15.975 13.9229 15.7396 14.1187 15.5437C14.3146 15.3479 14.55 15.25 14.825 15.25C15.1 15.25 15.3354 15.3479 15.5312 15.5437C15.7271 15.7396 15.825 15.975 15.825 16.25C15.825 16.525 15.7271 16.7604 15.5312 16.9563C15.3354 17.1521 15.1 17.25 14.825 17.25ZM6.825 8.25V7.25H8.4625L10.5875 11.75H14.0875L16.0375 8.25H17.175L14.975 12.225C14.8833 12.3917 14.7604 12.5208 14.6062 12.6125C14.4521 12.7042 14.2833 12.75 14.1 12.75H10.375L9.825 13.75H15.825V14.75H9.825C9.45 14.75 9.16458 14.5875 8.96875 14.2625C8.77291 13.9375 8.76666 13.6083 8.95 13.275L9.625 12.05L7.825 8.25H6.825Z" fill="white"/>
</svg>
