<svg width="24" height="24" viewBox="0 0 24 24" fill="none" xmlns="http://www.w3.org/2000/svg">
<rect width="24" height="24" rx="12" fill="#005136"/>
<path d="M11.3 14.3L14.825 10.775L14.125 10.075L11.3 12.9L9.875 11.475L9.175 12.175L11.3 14.3ZM12 17C11.3083 17 10.6583 16.8687 10.05 16.6062C9.44167 16.3438 8.9125 15.9875 8.4625 15.5375C8.0125 15.0875 7.65625 14.5583 7.39375 13.95C7.13125 13.3417 7 12.6917 7 12C7 11.3083 7.13125 10.6583 7.39375 10.05C7.65625 9.44167 8.0125 8.9125 8.4625 8.4625C8.9125 8.0125 9.44167 7.65625 10.05 7.39375C10.6583 7.13125 11.3083 7 12 7C12.6917 7 13.3417 7.13125 13.95 7.39375C14.5583 7.65625 15.0875 8.0125 15.5375 8.4625C15.9875 8.9125 16.3438 9.44167 16.6062 10.05C16.8687 10.6583 17 11.3083 17 12C17 12.6917 16.8687 13.3417 16.6062 13.95C16.3438 14.5583 15.9875 15.0875 15.5375 15.5375C15.0875 15.9875 14.5583 16.3438 13.95 16.6062C13.3417 16.8687 12.6917 17 12 17ZM12 16C13.1167 16 14.0625 15.6125 14.8375 14.8375C15.6125 14.0625 16 13.1167 16 12C16 10.8833 15.6125 9.9375 14.8375 9.1625C14.0625 8.3875 13.1167 8 12 8C10.8833 8 9.9375 8.3875 9.1625 9.1625C8.3875 9.9375 8 10.8833 8 12C8 13.1167 8.3875 14.0625 9.1625 14.8375C9.9375 15.6125 10.8833 16 12 16Z" fill="white"/>
</svg>
