<svg width="15" height="9" viewBox="0 0 15 9" fill="none" xmlns="http://www.w3.org/2000/svg">
<path fill-rule="evenodd" clip-rule="evenodd" d="M0.2748 0.274175C0.450581 0.0986117 0.688861 0 0.9373 0C1.18574 0 1.42402 0.0986117 1.5998 0.274175L7.1873 5.86042L12.7748 0.272925C12.9517 0.102233 13.1886 0.00784887 13.4344 0.0101C13.6802 0.0123511 13.9153 0.111058 14.089 0.284961C14.2627 0.458864 14.3612 0.694048 14.3632 0.939859C14.3653 1.18567 14.2707 1.42244 14.0998 1.59918L7.8498 7.84917C7.67402 8.02474 7.43574 8.12335 7.1873 8.12335C6.93886 8.12335 6.70058 8.02474 6.5248 7.84917L0.2748 1.59918C0.187681 1.51211 0.118572 1.40874 0.0714204 1.29495C0.024269 1.18117 0 1.05921 0 0.93605C0 0.812885 0.024269 0.690928 0.0714204 0.577146C0.118572 0.463364 0.187681 0.359988 0.2748 0.272925V0.274175Z" fill="#1D4ED8"/>
</svg>
