<svg width="22" height="22" viewBox="0 0 22 22" fill="none" xmlns="http://www.w3.org/2000/svg">
<path d="M11 21C16.5228 21 21 16.5228 21 11C21 5.47715 16.5228 1 11 1C5.47715 1 1 5.47715 1 11C1 12.5997 1.37562 14.1116 2.04346 15.4525C2.22094 15.8088 2.28001 16.2161 2.17712 16.6006L1.58151 18.8267C1.32295 19.793 2.20701 20.677 3.17335 20.4185L5.39939 19.8229C5.78393 19.72 6.19121 19.7791 6.54753 19.9565C7.88837 20.6244 9.40032 21 11 21Z" stroke="#64748B" stroke-width="2"/>
<path d="M9.68466 13.8828V13.679C9.68466 13.1155 9.73106 12.6664 9.82386 12.3317C9.91998 11.9969 10.0592 11.7285 10.2415 11.5263C10.4238 11.3208 10.6458 11.1335 10.9077 10.9645C11.1165 10.8319 11.3021 10.6977 11.4645 10.5618C11.6302 10.4226 11.7611 10.2734 11.8572 10.1143C11.9534 9.95526 12.0014 9.77462 12.0014 9.57244C12.0014 9.37689 11.955 9.20455 11.8622 9.0554C11.7694 8.90625 11.6418 8.7919 11.4794 8.71236C11.3203 8.6295 11.143 8.58807 10.9474 8.58807C10.7519 8.58807 10.5679 8.63281 10.3956 8.7223C10.2266 8.81179 10.0874 8.93939 9.97798 9.10511C9.87192 9.26752 9.81723 9.46473 9.81392 9.69673H7.52699C7.53693 9.00071 7.69768 8.43063 8.00923 7.98651C8.3241 7.54238 8.74006 7.21425 9.2571 7.00213C9.77415 6.78669 10.3442 6.67898 10.9673 6.67898C11.6501 6.67898 12.2566 6.78504 12.7869 6.99716C13.3205 7.20928 13.7398 7.52249 14.0447 7.93679C14.3497 8.35109 14.5021 8.85819 14.5021 9.4581C14.5021 9.85251 14.4358 10.2005 14.3033 10.5021C14.1707 10.8037 13.9851 11.0705 13.7464 11.3026C13.5111 11.5312 13.2344 11.7401 12.9162 11.929C12.6676 12.0748 12.4605 12.2273 12.2947 12.3864C12.1323 12.5455 12.0097 12.7277 11.9268 12.9332C11.844 13.1354 11.8026 13.384 11.8026 13.679V13.8828H9.68466ZM10.7834 17.1442C10.4254 17.1442 10.1188 17.0182 9.86364 16.7663C9.61174 16.5144 9.48745 16.2095 9.49077 15.8516C9.48745 15.5002 9.61174 15.2003 9.86364 14.9517C10.1188 14.6998 10.4254 14.5739 10.7834 14.5739C11.1248 14.5739 11.4247 14.6998 11.6832 14.9517C11.9418 15.2003 12.0727 15.5002 12.076 15.8516C12.0727 16.0902 12.0097 16.3073 11.8871 16.5028C11.7678 16.6984 11.6103 16.8542 11.4148 16.9702C11.2225 17.0862 11.0121 17.1442 10.7834 17.1442Z" fill="#64748B"/>
</svg>
