<svg width="9" height="15" viewBox="0 0 9 15" fill="none" xmlns="http://www.w3.org/2000/svg">
<path fill-rule="evenodd" clip-rule="evenodd" d="M0.274175 14.0885C0.0986117 13.9127 8.21459e-09 13.6744 1.11772e-08 13.426C1.41398e-08 13.1775 0.0986117 12.9393 0.274175 12.7635L5.86043 7.17598L0.272925 1.58848C0.102233 1.41159 0.00784903 1.17473 0.0101002 0.928918C0.0123513 0.683108 0.111058 0.448016 0.284961 0.274278C0.458864 0.100538 0.694048 0.00205327 0.939859 3.43435e-05C1.18567 -0.00198554 1.42244 0.0926237 1.59918 0.263482L7.84917 6.51348C8.02474 6.68926 8.12335 6.92754 8.12335 7.17598C8.12335 7.42442 8.02474 7.6627 7.84917 7.83848L1.59918 14.0885C1.51211 14.1756 1.40874 14.2447 1.29495 14.2919C1.18117 14.339 1.05921 14.3633 0.93605 14.3633C0.812885 14.3633 0.690928 14.339 0.577146 14.2919C0.463364 14.2447 0.359988 14.1756 0.272925 14.0885L0.274175 14.0885Z" fill="#64748B"/>
</svg>
