<svg width="20" height="24" viewBox="0 0 20 24" fill="none" xmlns="http://www.w3.org/2000/svg">
<path d="M4.6 15.0403C4.6 16.0344 3.7941 16.8404 2.8 16.8404C1.80591 16.8404 1 16.0344 1 15.0403V11.8001C1 10.8059 1.80591 10 2.8 10C3.7941 10 4.6 10.8059 4.6 11.8001V15.0403ZM19 15.0403C19 16.0344 18.1941 16.8404 17.2 16.8404C16.2059 16.8404 15.4 16.0344 15.4 15.0403V11.8001C15.4 10.8059 16.2059 10 17.2 10C18.1941 10 19 10.8059 19 11.8001V15.0403Z" stroke="#64748B" stroke-width="2" stroke-miterlimit="10" stroke-linecap="round" stroke-linejoin="round"/>
<path d="M1 11.8006V10.0005C1 5.02964 5.02944 1 10 1C14.9706 1 19 5.02964 19 10.0005V11.8006M19 15.0407V16.8408C19 18.8292 17.3882 20.441 15.4 20.441H11.8" stroke="#64748B" stroke-width="2" stroke-miterlimit="10" stroke-linecap="round" stroke-linejoin="round"/>
<path d="M9.99995 22.2408C10.9941 22.2408 11.8 21.4349 11.8 20.4407C11.8 19.4466 10.9941 18.6406 9.99995 18.6406C9.00584 18.6406 8.19995 19.4466 8.19995 20.4407C8.19995 21.4349 9.00584 22.2408 9.99995 22.2408Z" stroke="#64748B" stroke-width="2" stroke-miterlimit="10" stroke-linecap="round" stroke-linejoin="round"/>
</svg>
