<svg width="17" height="20" viewBox="0 0 17 20" fill="none" xmlns="http://www.w3.org/2000/svg">
<path d="M10.8852 7.24609C10.6265 7.24609 10.4168 7.45579 10.4168 7.71448V16.5669C10.4168 16.8255 10.6265 17.0353 10.8852 17.0353C11.1439 17.0353 11.3536 16.8255 11.3536 16.5669V7.71448C11.3536 7.45579 11.1439 7.24609 10.8852 7.24609ZM5.35828 7.24609C5.09959 7.24609 4.88989 7.45579 4.88989 7.71448V16.5669C4.88989 16.8255 5.09959 17.0353 5.35828 17.0353C5.61701 17.0353 5.82666 16.8255 5.82666 16.5669V7.71448C5.82666 7.45579 5.61701 7.24609 5.35828 7.24609Z" fill="#0040A1"/>
<path d="M1.33027 5.95419V17.4942C1.33027 18.1763 1.58039 18.8168 2.0173 19.2764C2.23243 19.5044 2.49179 19.6861 2.77953 19.8106C3.06726 19.935 3.37734 19.9994 3.69083 20H12.5528C12.8663 19.9995 13.1764 19.935 13.4641 19.8106C13.7519 19.6862 14.0112 19.5044 14.2264 19.2764C14.6633 18.8168 14.9134 18.1763 14.9134 17.4942V5.95419C15.7819 5.72365 16.3447 4.88459 16.2286 3.9934C16.1122 3.10235 15.3531 2.43584 14.4543 2.43565H12.0562V1.85017C12.0576 1.60644 12.0105 1.36487 11.9177 1.13949C11.825 0.914104 11.6883 0.709396 11.5158 0.537249C11.3432 0.365119 11.1381 0.228993 10.9125 0.136776C10.6869 0.0445581 10.4451 -0.0019131 10.2014 6.07144e-05H6.0423C5.79855 -0.00191931 5.55683 0.0445489 5.33119 0.136767C5.10554 0.228984 4.90047 0.365114 4.72788 0.537249C4.55533 0.709396 4.4187 0.914104 4.32592 1.13949C4.23314 1.36487 4.18606 1.60644 4.18741 1.85017V2.43565H1.78938C0.890649 2.43584 0.131541 3.10235 0.0151478 3.9934C-0.101011 4.88459 0.461751 5.72365 1.33027 5.95419ZM12.5528 19.0632H3.69088C2.89004 19.0632 2.26704 18.3753 2.26704 17.4942V5.99536H13.9766V17.4942C13.9766 18.3753 13.3537 19.0632 12.5528 19.0632ZM5.12418 1.85017C5.12265 1.72942 5.14539 1.60958 5.19106 1.49779C5.23673 1.38599 5.30439 1.2845 5.39003 1.19936C5.47564 1.11416 5.57749 1.04702 5.68953 1.00193C5.80158 0.95683 5.92154 0.934693 6.0423 0.936827H10.2014C10.3222 0.934693 10.4421 0.95683 10.5542 1.00193C10.6662 1.04702 10.7681 1.11416 10.8537 1.19936C10.9393 1.2845 11.007 1.38598 11.0526 1.49778C11.0983 1.60958 11.121 1.72942 11.1195 1.85017V2.43565H5.12418V1.85017ZM1.78938 3.37242H14.4544C14.92 3.37242 15.2975 3.74989 15.2975 4.21551C15.2975 4.68113 14.92 5.0586 14.4544 5.0586H1.78934C1.32372 5.0586 0.946246 4.68113 0.946246 4.21551C0.946246 3.74989 1.32376 3.37242 1.78938 3.37242Z" fill="#0040A1"/>
<path d="M8.12195 7.24609C7.86326 7.24609 7.65356 7.45579 7.65356 7.71448V16.5669C7.65356 16.8255 7.86326 17.0353 8.12195 17.0353C8.38068 17.0353 8.59033 16.8255 8.59033 16.5669V7.71448C8.59033 7.45579 8.38068 7.24609 8.12195 7.24609Z" fill="#0040A1"/>
</svg>
