<svg width="17" height="15" viewBox="0 0 17 15" fill="none" xmlns="http://www.w3.org/2000/svg">
<path d="M3.38466 14.25C3.04716 14.25 2.74716 14.1469 2.48466 13.9406C2.22216 13.7344 2.04091 13.4688 1.94091 13.1438L0.0284091 6.20625C-0.0340909 5.96875 0.0065341 5.75 0.150284 5.55C0.294034 5.35 0.490909 5.25 0.740909 5.25H4.30341L7.60341 0.3375C7.66591 0.2375 7.75341 0.15625 7.86591 0.09375C7.97841 0.03125 8.09716 0 8.22216 0C8.34716 0 8.46591 0.03125 8.57841 0.09375C8.69091 0.15625 8.77841 0.2375 8.84091 0.3375L12.1409 5.25H15.7409C15.9909 5.25 16.1878 5.35 16.3315 5.55C16.4753 5.75 16.5159 5.96875 16.4534 6.20625L14.5409 13.1438C14.4409 13.4688 14.2597 13.7344 13.9972 13.9406C13.7347 14.1469 13.4347 14.25 13.0972 14.25H3.38466ZM3.36591 12.75H13.1159L14.7659 6.75H1.71591L3.36591 12.75ZM8.24091 11.25C8.65341 11.25 9.00653 11.1031 9.30028 10.8094C9.59403 10.5156 9.74091 10.1625 9.74091 9.75C9.74091 9.3375 9.59403 8.98438 9.30028 8.69063C9.00653 8.39688 8.65341 8.25 8.24091 8.25C7.82841 8.25 7.47528 8.39688 7.18153 8.69063C6.88778 8.98438 6.74091 9.3375 6.74091 9.75C6.74091 10.1625 6.88778 10.5156 7.18153 10.8094C7.47528 11.1031 7.82841 11.25 8.24091 11.25ZM6.12216 5.25H10.3409L8.22216 2.1L6.12216 5.25Z" fill="#0040A1"/>
</svg>
