<svg width="14" height="15" viewBox="0 0 14 15" fill="none" xmlns="http://www.w3.org/2000/svg">
<path d="M6.75 12C6.9625 12 7.14062 11.9281 7.28438 11.7844C7.42813 11.6406 7.5 11.4625 7.5 11.25C7.5 11.0375 7.42813 10.8594 7.28438 10.7156C7.14062 10.5719 6.9625 10.5 6.75 10.5C6.5375 10.5 6.35938 10.5719 6.21562 10.7156C6.07187 10.8594 6 11.0375 6 11.25C6 11.4625 6.07187 11.6406 6.21562 11.7844C6.35938 11.9281 6.5375 12 6.75 12ZM6 9H7.5V4.5H6V9ZM1.5 15C1.0875 15 0.734375 14.8531 0.440625 14.5594C0.146875 14.2656 0 13.9125 0 13.5V3C0 2.5875 0.146875 2.23438 0.440625 1.94062C0.734375 1.64687 1.0875 1.5 1.5 1.5H4.65C4.8125 1.05 5.08437 0.6875 5.46562 0.4125C5.84687 0.1375 6.275 0 6.75 0C7.225 0 7.65313 0.1375 8.03438 0.4125C8.41563 0.6875 8.6875 1.05 8.85 1.5H12C12.4125 1.5 12.7656 1.64687 13.0594 1.94062C13.3531 2.23438 13.5 2.5875 13.5 3V13.5C13.5 13.9125 13.3531 14.2656 13.0594 14.5594C12.7656 14.8531 12.4125 15 12 15H1.5ZM1.5 13.5H12V3H1.5V13.5ZM6.75 2.4375C6.9125 2.4375 7.04688 2.38438 7.15312 2.27813C7.25937 2.17188 7.3125 2.0375 7.3125 1.875C7.3125 1.7125 7.25937 1.57812 7.15312 1.47187C7.04688 1.36562 6.9125 1.3125 6.75 1.3125C6.5875 1.3125 6.45312 1.36562 6.34688 1.47187C6.24063 1.57812 6.1875 1.7125 6.1875 1.875C6.1875 2.0375 6.24063 2.17188 6.34688 2.27813C6.45312 2.38438 6.5875 2.4375 6.75 2.4375ZM1.5 13.5V3V13.5Z" fill="#0040A1"/>
</svg>
