<svg width="20" height="13" viewBox="0 0 20 13" fill="none" xmlns="http://www.w3.org/2000/svg">
<path d="M9.99998 12.5C3.45733 12.5 0.213576 6.79625 0.0787323 6.55359C0.0270977 6.46071 0 6.35619 0 6.24992C0 6.14365 0.0270977 6.03913 0.0787323 5.94625C0.213576 5.70375 3.45733 0 9.99998 0C16.5426 0 19.7864 5.70375 19.9212 5.94641C19.9729 6.03929 20 6.14381 20 6.25008C20 6.35635 19.9729 6.46087 19.9212 6.55375C19.7864 6.79625 16.5426 12.5 9.99998 12.5ZM1.36045 6.24906C2.10389 7.37578 5.02279 11.25 9.99998 11.25C14.993 11.25 17.8989 7.37891 18.6395 6.25094C17.8961 5.12422 14.9772 1.25 9.99998 1.25C5.00701 1.25 2.10108 5.12109 1.36045 6.24906ZM9.99998 10C7.93217 10 6.24998 8.31781 6.24998 6.25C6.24998 4.18219 7.93217 2.5 9.99998 2.5C12.0678 2.5 13.75 4.18219 13.75 6.25C13.75 8.31781 12.0678 10 9.99998 10ZM9.99998 3.75C8.62154 3.75 7.49998 4.87156 7.49998 6.25C7.49998 7.62844 8.62154 8.75 9.99998 8.75C11.3784 8.75 12.5 7.62844 12.5 6.25C12.5 4.87156 11.3784 3.75 9.99998 3.75Z" fill="#0040A1"/>
</svg>
