<svg width="17" height="17" viewBox="0 0 17 17" fill="none" xmlns="http://www.w3.org/2000/svg">
<path d="M1.59044 11.7394C1.46685 11.7394 1.34604 11.7027 1.24328 11.634C1.14053 11.5653 1.06044 11.4677 1.01314 11.3536C0.96585 11.2394 0.953474 11.1137 0.977578 10.9925C1.00168 10.8713 1.06119 10.7599 1.14857 10.6725L10.9154 0.905649C10.9731 0.845955 11.0421 0.798341 11.1183 0.765585C11.1946 0.73283 11.2766 0.715588 11.3596 0.714867C11.4426 0.714146 11.5249 0.72996 11.6017 0.761385C11.6785 0.792811 11.7483 0.839219 11.8069 0.897902C11.8656 0.956585 11.912 1.02637 11.9435 1.10318C11.9749 1.17999 11.9907 1.26229 11.99 1.34527C11.9893 1.42826 11.972 1.51027 11.9393 1.58653C11.9065 1.66278 11.8589 1.73174 11.7992 1.7894L2.03232 11.5563C1.91044 11.6781 1.75044 11.7394 1.59044 11.7394Z" fill="#0040A1"/>
<path d="M0.625499 16.2399C0.532239 16.2399 0.440145 16.2191 0.355967 16.179C0.27179 16.1389 0.197663 16.0804 0.139021 16.0079C0.080379 15.9354 0.0387088 15.8506 0.0170649 15.7599C-0.00457906 15.6692 -0.00564796 15.5748 0.0139367 15.4836L0.979562 10.9827C0.996559 10.9022 1.02927 10.8259 1.07582 10.7581C1.12237 10.6903 1.18184 10.6323 1.25083 10.5876C1.31982 10.5428 1.39696 10.5121 1.47784 10.4972C1.55872 10.4823 1.64175 10.4835 1.72216 10.5008C1.80257 10.518 1.87879 10.551 1.94644 10.5977C2.0141 10.6445 2.07185 10.7041 2.11641 10.7733C2.16096 10.8424 2.19143 10.9196 2.20608 11.0006C2.22072 11.0815 2.21925 11.1645 2.20175 11.2449L1.23612 15.7458C1.20618 15.8856 1.12924 16.0108 1.01812 16.1007C0.907005 16.1906 0.768431 16.2398 0.625499 16.2399ZM5.12581 15.2742C5.00222 15.2742 4.88141 15.2375 4.77865 15.1689C4.67589 15.1002 4.59581 15.0026 4.54851 14.8884C4.50122 14.7742 4.48884 14.6486 4.51295 14.5273C4.53705 14.4061 4.59656 14.2948 4.68394 14.2074L14.4508 4.4408C14.5085 4.38111 14.5774 4.3335 14.6537 4.30074C14.7299 4.26799 14.8119 4.25074 14.8949 4.25002C14.9779 4.2493 15.0602 4.26512 15.137 4.29654C15.2138 4.32797 15.2836 4.37438 15.3423 4.43306C15.401 4.49174 15.4474 4.56152 15.4788 4.63833C15.5103 4.71514 15.5261 4.79744 15.5253 4.88043C15.5246 4.96342 15.5074 5.04543 15.4746 5.12168C15.4419 5.19794 15.3943 5.2669 15.3346 5.32455L5.568 15.0911C5.51 15.1493 5.44108 15.1954 5.36519 15.2268C5.2893 15.2583 5.20795 15.2744 5.12581 15.2742Z" fill="#0040A1"/>
<path d="M0.624365 16.2403C0.470358 16.2397 0.322009 16.1822 0.207749 16.0789C0.0934886 15.9757 0.0213549 15.8339 0.0051721 15.6807C-0.0110107 15.5276 0.0298956 15.3738 0.120051 15.249C0.210207 15.1241 0.343271 15.0369 0.49374 15.0041L4.99468 14.0384C5.15653 14.0042 5.32533 14.0356 5.46409 14.1257C5.60285 14.2157 5.70025 14.3571 5.73495 14.5189C5.76965 14.6806 5.73881 14.8495 5.64919 14.9885C5.55958 15.1276 5.4185 15.2254 5.25687 15.2606L0.755928 16.2263C0.712711 16.2357 0.668599 16.2404 0.624365 16.2403ZM13.125 7.27562C13.0429 7.27578 12.9616 7.25968 12.8857 7.22825C12.8099 7.19682 12.741 7.15068 12.6831 7.0925L9.1478 3.55719C9.08811 3.49953 9.0405 3.43057 9.00774 3.35432C8.97498 3.27806 8.95774 3.19605 8.95702 3.11306C8.9563 3.03008 8.97211 2.94778 9.00354 2.87097C9.03496 2.79416 9.08137 2.72437 9.14006 2.66569C9.19874 2.60701 9.26852 2.5606 9.34533 2.52917C9.42214 2.49775 9.50444 2.48193 9.58743 2.48266C9.67042 2.48338 9.75243 2.50062 9.82868 2.53337C9.90493 2.56613 9.9739 2.61374 10.0316 2.67344L13.5669 6.20875C13.6542 6.29616 13.7137 6.40751 13.7379 6.52873C13.762 6.64995 13.7496 6.7756 13.7023 6.88978C13.655 7.00397 13.5749 7.10157 13.4722 7.17025C13.3694 7.23893 13.2486 7.2756 13.125 7.27562ZM14.8928 5.50812C14.7691 5.50822 14.6482 5.47162 14.5453 5.40295C14.4424 5.33428 14.3623 5.23663 14.3149 5.12237C14.2676 5.0081 14.2552 4.88236 14.2793 4.76106C14.3035 4.63976 14.3631 4.52835 14.4506 4.44094C14.7984 4.09313 14.99 3.62219 14.99 3.11531C14.99 2.60844 14.7984 2.1375 14.4506 1.78969C14.1025 1.44156 13.6316 1.25 13.1247 1.25C12.6178 1.25 12.1469 1.44156 11.7991 1.78969C11.741 1.84774 11.6721 1.89378 11.5962 1.9252C11.5204 1.95661 11.4391 1.97278 11.357 1.97278C11.2749 1.97278 11.1936 1.95661 11.1178 1.9252C11.042 1.89378 10.973 1.84774 10.915 1.78969C10.8569 1.73164 10.8109 1.66273 10.7795 1.58688C10.7481 1.51104 10.7319 1.42975 10.7319 1.34766C10.7319 1.26556 10.7481 1.18427 10.7795 1.10843C10.8109 1.03259 10.8569 0.963673 10.915 0.905625C11.4987 0.321562 12.2834 0 13.1247 0C13.9656 0 14.7506 0.321562 15.3344 0.905625C15.9184 1.48937 16.24 2.27406 16.24 3.11531C16.24 3.95656 15.9184 4.74125 15.3344 5.325C15.2765 5.38314 15.2077 5.42926 15.1319 5.46068C15.0561 5.49211 14.9748 5.50824 14.8928 5.50812Z" fill="#0040A1"/>
</svg>
