<svg width="23" height="16" viewBox="0 0 23 16" fill="none" xmlns="http://www.w3.org/2000/svg">
<path d="M17.3708 10.1467C15.7721 10.1467 14.4716 11.4472 14.4716 13.0458C14.4716 14.6445 15.7721 15.945 17.3708 15.945C18.9697 15.945 20.27 14.6445 20.27 13.0458C20.27 11.4472 18.9694 10.1467 17.3708 10.1467ZM17.3708 14.4954C16.5714 14.4954 15.9212 13.8453 15.9212 13.0458C15.9212 12.2464 16.5714 11.5963 17.3708 11.5963C18.1702 11.5963 18.8204 12.2464 18.8204 13.0458C18.8204 13.8453 18.1702 14.4954 17.3708 14.4954ZM7.46533 10.1467C5.86669 10.1467 4.56616 11.4472 4.56616 13.0458C4.56616 14.6445 5.86669 15.945 7.46533 15.945C9.06396 15.945 10.3645 14.6445 10.3645 13.0458C10.3645 11.4472 9.06396 10.1467 7.46533 10.1467ZM7.46533 14.4954C6.6659 14.4954 6.01575 13.8453 6.01575 13.0458C6.01575 12.2464 6.6659 11.5963 7.46533 11.5963C8.26453 11.5963 8.91491 12.2464 8.91491 13.0458C8.91491 13.8453 8.26476 14.4954 7.46533 14.4954ZM19.3231 1.84835C19.2627 1.72835 19.1702 1.62749 19.0558 1.55702C18.9414 1.48654 18.8097 1.44922 18.6754 1.44922H14.8582V2.8988H18.2284L20.202 6.82426L21.4975 6.17289L19.3231 1.84835Z" fill="#64748B"/>
<path d="M9.7122 12.3456H15.1964V13.7952H9.7122V12.3456ZM5.29094 12.3456H2.77837C2.37803 12.3456 2.0536 12.6701 2.0536 13.0704C2.0536 13.4707 2.37807 13.7951 2.77837 13.7951H5.29099C5.69133 13.7951 6.01576 13.4707 6.01576 13.0704C6.01576 12.67 5.69129 12.3456 5.29094 12.3456ZM22.8478 7.91469L21.4222 6.07856C21.3545 5.99126 21.2677 5.92062 21.1685 5.87204C21.0693 5.82346 20.9603 5.79823 20.8498 5.79829H15.583V0.724769C15.583 0.324426 15.2585 0 14.8582 0H2.77837C2.37803 0 2.0536 0.32447 2.0536 0.724769C2.0536 1.12507 2.37807 1.44954 2.77837 1.44954H14.1334V6.52306C14.1334 6.9234 14.4579 7.24783 14.8582 7.24783H20.4949L21.5504 8.60752V12.3455H19.5451C19.1448 12.3455 18.8204 12.67 18.8204 13.0703C18.8204 13.4706 19.1448 13.7951 19.5451 13.7951H22.2752C22.6755 13.7951 23 13.4706 23 13.0703V8.35924C23 8.19833 22.9464 8.04178 22.8478 7.91469ZM5.24265 8.67334H1.9086C1.50825 8.67334 1.18383 8.99781 1.18383 9.3981C1.18383 9.79845 1.5083 10.1229 1.9086 10.1229H5.24261C5.64295 10.1229 5.96738 9.7984 5.96738 9.3981C5.96742 8.99781 5.64295 8.67334 5.24265 8.67334ZM6.90966 5.82246H0.72477C0.324471 5.82246 0 6.14693 0 6.54727C0 6.94762 0.324471 7.27204 0.72477 7.27204H6.90966C7.31 7.27204 7.63443 6.94757 7.63443 6.54727C7.63443 6.14697 7.31 5.82246 6.90966 5.82246Z" fill="#64748B"/>
<path d="M8.09337 2.9707H1.90849C1.50814 2.9707 1.18372 3.29517 1.18372 3.69547C1.18372 4.09582 1.50819 4.42024 1.90849 4.42024H8.09337C8.49372 4.42024 8.81814 4.09577 8.81814 3.69547C8.81819 3.29517 8.49372 2.9707 8.09337 2.9707Z" fill="#64748B"/>
</svg>
