<svg width="13" height="7" viewBox="0 0 13 7" fill="none" xmlns="http://www.w3.org/2000/svg">
<path d="M3.5 7C2.52778 7 1.70139 6.65972 1.02083 5.97917C0.340278 5.29861 0 4.47222 0 3.5C0 2.52778 0.340278 1.70139 1.02083 1.02083C1.70139 0.340278 2.52778 0 3.5 0H9.33333C10.3056 0 11.1319 0.340278 11.8125 1.02083C12.4931 1.70139 12.8333 2.52778 12.8333 3.5C12.8333 4.47222 12.4931 5.29861 11.8125 5.97917C11.1319 6.65972 10.3056 7 9.33333 7H3.5ZM3.5 5.83333H9.33333C9.975 5.83333 10.5243 5.60486 10.9812 5.14792C11.4382 4.69097 11.6667 4.14167 11.6667 3.5C11.6667 2.85833 11.4382 2.30903 10.9812 1.85208C10.5243 1.39514 9.975 1.16667 9.33333 1.16667H3.5C2.85833 1.16667 2.30903 1.39514 1.85208 1.85208C1.39514 2.30903 1.16667 2.85833 1.16667 3.5C1.16667 4.14167 1.39514 4.69097 1.85208 5.14792C2.30903 5.60486 2.85833 5.83333 3.5 5.83333ZM9.33333 5.25C9.81944 5.25 10.2326 5.07986 10.5729 4.73958C10.9132 4.39931 11.0833 3.98611 11.0833 3.5C11.0833 3.01389 10.9132 2.60069 10.5729 2.26042C10.2326 1.92014 9.81944 1.75 9.33333 1.75C8.84722 1.75 8.43403 1.92014 8.09375 2.26042C7.75347 2.60069 7.58333 3.01389 7.58333 3.5C7.58333 3.98611 7.75347 4.39931 8.09375 4.73958C8.43403 5.07986 8.84722 5.25 9.33333 5.25Z" fill="#005136"/>
</svg>
